<?xml version="1.0" encoding="UTF-8" standalone="no"?>
<!DOCTYPE svg PUBLIC "-//W3C//DTD SVG 1.1//EN" "http://www.w3.org/Graphics/SVG/1.1/DTD/svg11.dtd">
<svg width="27.60" height="22.32" viewBox="0.00 0.00 230.00 186.00" xmlns="http://www.w3.org/2000/svg" xmlns:xlink="http://www.w3.org/1999/xlink">
<g stroke-linecap="round" transform="translate(-232.00, -66.00)" id="Layer_6">
<path d="M342.27,126.36 Q323.64,128.18 333.18,143.64 Q342.73,159.09 360.00,155.91 Q377.27,152.73 369.09,138.64 Q360.91,124.55 342.27,126.36 Z" fill="none" stroke="rgb(0, 0, 0)" stroke-width="4.00" stroke-opacity="1.00" stroke-linejoin="miter"/>
<path d="M330.00,132.00 Q316.67,130.67 317.33,149.33 Q318.00,168.00 344.67,174.00 Q371.33,180.00 379.00,161.67 Q386.67,143.33 372.00,144.67" fill="none" stroke="rgb(0, 0, 0)" stroke-width="4.00" stroke-opacity="1.00" stroke-linejoin="miter"/>
<path d="M378.00,144.67 Q388.67,124.00 370.00,106.33 Q351.33,88.67 312.67,91.67 Q274.00,94.67 275.67,127.67 Q277.33,160.67 300.67,169.33 Q324.00,178.00 335.33,172.00" fill="none" stroke="rgb(0, 0, 0)" stroke-width="4.00" stroke-opacity="1.00" stroke-linejoin="miter"/>
<path d="M333.33,171.33 Q332.00,200.67 353.33,204.67 Q374.67,208.67 398.33,188.67 Q422.00,168.67 416.67,147.67 Q411.33,126.67 385.33,128.00" fill="none" stroke="rgb(0, 0, 0)" stroke-width="4.00" stroke-opacity="1.00" stroke-linejoin="miter"/>
<path d="M388.39,127.29 Q388.39,127.29 382.18,128.22" fill="none" stroke="rgb(0, 0, 0)" stroke-width="4.00" stroke-opacity="1.00" stroke-linejoin="miter"/>
<path d="M373.34,108.83 Q381.27,96.42 392.01,95.87 Q402.75,95.32 430.85,109.37 Q458.95,123.42 456.47,150.14 Q453.99,176.86 435.54,183.75 Q417.08,190.63 402.75,186.78" fill="none" stroke="rgb(0, 0, 0)" stroke-width="5.00" stroke-opacity="1.00" stroke-linejoin="miter"/>
<path d="M344.00,200.50 Q328.50,221.00 295.75,202.00 Q263.00,183.00 285.50,159.00" fill="none" stroke="rgb(0, 0, 0)" stroke-width="4.00" stroke-opacity="1.00" stroke-linejoin="miter"/>
<path d="M382.00,99.00 Q351.50,69.50 327.50,69.00 Q303.50,68.50 278.25,81.25 Q253.00,94.00 247.25,111.00 Q241.50,128.00 247.25,138.50 Q253.00,149.00 284.00,161.00" fill="none" stroke="rgb(0, 0, 0)" stroke-width="5.00" stroke-opacity="1.00" stroke-linejoin="miter"/>
<path d="M260.00,150.42 Q234.50,169.50 245.00,194.00 Q255.50,218.50 287.00,232.00 Q318.50,245.50 331.25,242.75 Q344.00,240.00 347.26,203.31" fill="none" stroke="rgb(0, 0, 0)" stroke-width="5.00" stroke-opacity="1.00" stroke-linejoin="miter"/>
<path d="M346.42,224.27 Q348.50,248.50 372.00,247.75 Q395.50,247.00 420.50,224.25 Q445.50,201.50 432.00,186.00" fill="none" stroke="rgb(0, 0, 0)" stroke-width="5.00" stroke-opacity="1.00" stroke-linejoin="miter"/>
<path d="M349.92,237.93 Q345.00,226.00 348.50,202.50" fill="none" stroke="rgb(0, 0, 0)" stroke-width="5.00" stroke-opacity="1.00" stroke-linejoin="miter"/>
<path d="M361.00,154.50 Q365.33,155.27 361.82,154.93 Q358.30,154.60 356.00,153.86 Q353.70,153.11 353.11,152.80 Q351.64,152.00 350.51,150.83 Q348.89,149.17 347.98,146.75 Q347.09,144.40 346.86,141.35 Q346.64,138.49 347.00,135.00" fill="none" stroke="rgb(0, 0, 0)" stroke-width="4.00" stroke-opacity="1.00" stroke-linejoin="round"/>
<path d="M353.67,152.71 Q353.52,152.29 353.40,151.88 Q353.09,150.82 352.96,149.84 Q352.83,148.86 352.89,147.97 Q352.99,146.18 353.81,144.72 Q354.71,143.13 356.46,141.94 Q358.12,140.80 360.56,140.02" fill="none" stroke="rgb(0, 0, 0)" stroke-width="4.00" stroke-opacity="1.00" stroke-linejoin="round"/>
<path d="M329.71,137.84 Q329.68,138.23 329.66,138.60 Q329.40,143.13 330.53,147.09 Q331.66,151.05 334.17,154.46 Q336.93,158.19 341.34,161.24 Q345.50,164.12 351.13,166.41" fill="none" stroke="rgb(0, 0, 0)" stroke-width="3.00" stroke-opacity="1.00" stroke-linejoin="round"/>
<path d="M373.29,145.05 Q373.30,145.30 373.30,145.55 Q373.32,147.17 373.18,148.68 Q373.01,150.42 372.64,152.01 Q371.99,154.77 370.69,157.07 Q369.36,159.44 367.35,161.32 Q365.33,163.21 362.63,164.60" fill="none" stroke="rgb(0, 0, 0)" stroke-width="3.00" stroke-opacity="1.00" stroke-linejoin="round"/>
<path d="M381.47,133.32 Q381.90,133.27 382.32,133.24 Q385.24,133.00 387.91,133.16 Q390.57,133.32 392.99,133.88 Q397.81,135.01 401.63,137.75 Q405.66,140.64 408.56,145.34 Q411.36,149.87 413.11,156.07" fill="none" stroke="rgb(0, 0, 0)" stroke-width="3.00" stroke-opacity="1.00" stroke-linejoin="round"/>
<path d="M343.43,173.49 Q343.35,173.80 343.29,174.11 Q342.82,176.27 342.68,178.25 Q342.55,180.22 342.74,182.02 Q343.13,185.61 344.83,188.48 Q346.64,191.53 349.93,193.76 Q353.10,195.91 357.65,197.31" fill="none" stroke="rgb(0, 0, 0)" stroke-width="3.00" stroke-opacity="1.00" stroke-linejoin="round"/>
<path d="M291.17,163.89 Q290.93,164.36 290.71,164.82 Q287.85,170.82 287.74,175.96 Q287.64,181.10 290.29,185.39 Q293.35,190.36 300.10,194.18 Q306.21,197.63 315.34,200.16" fill="none" stroke="rgb(0, 0, 0)" stroke-width="3.00" stroke-opacity="1.00" stroke-linejoin="round"/>
<path d="M323.87,163.89 Q323.36,163.90 322.85,163.91 Q320.79,163.92 318.85,163.78 Q316.47,163.62 314.28,163.24 Q310.28,162.55 306.86,161.16 Q301.20,158.85 297.13,154.59 Q293.03,150.30 290.54,144.03 Q288.15,137.99 287.26,130.12" fill="none" stroke="rgb(0, 0, 0)" stroke-width="3.00" stroke-opacity="1.00" stroke-linejoin="round"/>
<path d="M365.83,134.74 Q365.83,134.43 365.83,134.12 Q365.84,132.08 365.59,130.20 Q365.34,128.32 364.83,126.59 Q363.83,123.14 361.80,120.31 Q359.68,117.34 356.45,115.06 Q353.31,112.85 349.12,111.28" fill="none" stroke="rgb(0, 0, 0)" stroke-width="3.00" stroke-opacity="1.00" stroke-linejoin="round"/>
<path d="M276.95,157.14 Q276.48,156.92 276.03,156.70 Q275.24,156.29 274.49,155.84 Q270.90,153.65 268.54,150.30 Q265.68,146.25 264.61,140.53 Q263.41,134.12 264.45,125.59 Q265.37,118.02 268.06,108.79" fill="none" stroke="rgb(0, 0, 0)" stroke-width="3.00" stroke-opacity="1.00" stroke-linejoin="round"/>
<path d="M405.64,180.60 Q406.16,180.65 406.66,180.68 Q409.22,180.83 411.61,180.68 Q412.92,180.60 414.18,180.42 Q417.74,179.92 420.89,178.67 Q426.60,176.41 430.96,171.71 Q435.20,167.14 438.17,160.27 Q440.94,153.85 442.62,145.41" fill="none" stroke="rgb(0, 0, 0)" stroke-width="3.00" stroke-opacity="1.00" stroke-linejoin="round"/>
<path d="M339.87,204.42 Q339.86,204.85 339.84,205.27 Q339.65,210.12 339.07,214.23 Q338.49,218.34 337.52,221.69 Q336.19,226.34 334.11,229.55 Q331.81,233.13 328.59,234.93 Q325.15,236.86 320.68,236.77" fill="none" stroke="rgb(0, 0, 0)" stroke-width="3.00" stroke-opacity="1.00" stroke-linejoin="round"/>
<path d="M354.09,205.13 Q354.00,205.65 353.92,206.16 Q353.75,207.17 353.60,208.15 Q352.96,212.53 352.86,216.28 Q352.74,220.88 353.43,224.54 Q354.51,230.37 357.64,233.83 Q361.03,237.59 366.81,238.57 Q372.46,239.53 380.40,237.84" fill="none" stroke="rgb(0, 0, 0)" stroke-width="3.00" stroke-opacity="1.00" stroke-linejoin="round"/>
</g>
</svg>
